<?xml version="1.0" encoding="UTF-8"?>
<!DOCTYPE svg PUBLIC "-//W3C//DTD SVG 1.1//EN" "http://www.w3.org/Graphics/SVG/1.1/DTD/svg11.dtd">
<!-- Creator: CorelDRAW 2021 (64-Bit) -->
<svg xmlns="http://www.w3.org/2000/svg" xml:space="preserve" width="6.3484mm" height="6.3485mm" version="1.1" style="shape-rendering:geometricPrecision; text-rendering:geometricPrecision; image-rendering:optimizeQuality; fill-rule:evenodd; clip-rule:evenodd"
viewBox="0 0 90.22 90.22"
 xmlns:xlink="http://www.w3.org/1999/xlink"
 xmlns:xodm="http://www.corel.com/coreldraw/odm/2003">
 <defs>
  <style type="text/css">
   <![CDATA[
    .fil0 {fill:black}
   ]]>
  </style>
 </defs>
 <g id="Capa_x0020_1">
  <metadata id="CorelCorpID_0Corel-Layer"/>
  <path class="fil0" d="M6.05 0l25.53 0c3.33,0 6.05,2.8 6.05,6.23l0 26.26c0,3.42 -2.72,6.22 -6.05,6.22l-25.53 0c-3.33,0 -6.05,-2.8 -6.05,-6.22l0 -26.26c0,-3.42 2.72,-6.23 6.05,-6.23zm52.59 0l25.53 0c3.33,0 6.05,2.8 6.05,6.23l0 26.26c0,3.42 -2.72,6.22 -6.05,6.22l-25.53 0c-3.33,0 -6.05,-2.8 -6.05,-6.22l0 -26.26c0,-3.42 2.72,-6.23 6.05,-6.23zm-52.59 51.51l25.53 0c3.33,0 6.05,2.8 6.05,6.22l0 26.26c0,3.43 -2.72,6.23 -6.05,6.23l-25.53 0c-3.33,0 -6.05,-2.8 -6.05,-6.23l0 -26.26c0,-3.42 2.72,-6.22 6.05,-6.22zm52.59 0l25.53 0c3.33,0 6.05,2.8 6.05,6.22l0 26.26c0,3.43 -2.72,6.23 -6.05,6.23l-25.53 0c-3.33,0 -6.05,-2.8 -6.05,-6.23l0 -26.26c0,-3.42 2.72,-6.22 6.05,-6.22z"/>
 </g>
</svg>
