<?xml version="1.0" encoding="UTF-8"?>
<!DOCTYPE svg PUBLIC "-//W3C//DTD SVG 1.1//EN" "http://www.w3.org/Graphics/SVG/1.1/DTD/svg11.dtd">
<!-- Creator: CorelDRAW 2021 (64-Bit) -->
<svg xmlns="http://www.w3.org/2000/svg" xml:space="preserve" width="6.3484mm" height="6.3485mm" version="1.1" style="shape-rendering:geometricPrecision; text-rendering:geometricPrecision; image-rendering:optimizeQuality; fill-rule:evenodd; clip-rule:evenodd"
viewBox="0 0 201.57 201.57"
 xmlns:xlink="http://www.w3.org/1999/xlink"
 xmlns:xodm="http://www.corel.com/coreldraw/odm/2003">
 <defs>
  <style type="text/css">
   <![CDATA[
    .fil0 {fill:black}
   ]]>
  </style>
 </defs>
 <g id="Capa_x0020_1">
  <metadata id="CorelCorpID_0Corel-Layer"/>
  <path class="fil0" d="M13.12 0l55.37 0c7.22,0 13.13,6.26 13.13,13.91l0 58.68c0,7.65 -5.9,13.91 -13.13,13.91l-55.37 0c-7.22,0 -13.12,-6.25 -13.12,-13.91l0 -58.68c0,-7.65 5.9,-13.91 13.12,-13.91zm0 115.07l55.37 0c7.22,0 13.13,6.25 13.13,13.91l0 58.68c0,7.66 -5.9,13.91 -13.13,13.91l-55.37 0c-7.22,0 -13.12,-6.25 -13.12,-13.91l0 -58.68c0,-7.65 5.9,-13.91 13.12,-13.91zm106.54 -115.07l72.06 0c5.41,0 9.84,4.69 9.84,10.43l0 7.78c0,5.74 -4.43,10.43 -9.84,10.43l-72.06 0c-5.41,0 -9.84,-4.69 -9.84,-10.43l0 -7.78c0,-5.74 4.43,-10.43 9.84,-10.43zm0 57.22l72.06 0c5.41,0 9.84,4.69 9.84,10.43l0 7.78c0,5.74 -4.43,10.43 -9.84,10.43l-72.06 0c-5.41,0 -9.84,-4.69 -9.84,-10.43l0 -7.78c0,-5.74 4.43,-10.43 9.84,-10.43zm0 57.71l72.06 0c5.41,0 9.84,4.69 9.84,10.43l0 7.78c0,5.74 -4.43,10.43 -9.84,10.43l-72.06 0c-5.41,0 -9.84,-4.69 -9.84,-10.43l0 -7.78c0,-5.74 4.43,-10.43 9.84,-10.43zm0 58l72.06 0c5.41,0 9.84,4.69 9.84,10.43l0 7.78c0,5.74 -4.43,10.43 -9.84,10.43l-72.06 0c-5.41,0 -9.84,-4.69 -9.84,-10.43l0 -7.78c0,-5.74 4.43,-10.43 9.84,-10.43z"/>
 </g>
</svg>
