<?xml version="1.0" encoding="UTF-8"?>
<!DOCTYPE svg PUBLIC "-//W3C//DTD SVG 1.1//EN" "http://www.w3.org/Graphics/SVG/1.1/DTD/svg11.dtd">
<!-- Creator: CorelDRAW 2021 (64-Bit) -->
<svg xmlns="http://www.w3.org/2000/svg" xml:space="preserve" width="6.893mm" height="6.893mm" version="1.1" style="shape-rendering:geometricPrecision; text-rendering:geometricPrecision; image-rendering:optimizeQuality; fill-rule:evenodd; clip-rule:evenodd"
viewBox="0 0 56.91 56.91"
 xmlns:xlink="http://www.w3.org/1999/xlink"
 xmlns:xodm="http://www.corel.com/coreldraw/odm/2003">
 <defs>
  <style type="text/css">
   <![CDATA[
    .fil0 {fill:#FEFEFE;fill-rule:nonzero}
   ]]>
  </style>
 </defs>
 <g id="Capa_x0020_1">
  <metadata id="CorelCorpID_0Corel-Layer"/>
  <path class="fil0" d="M48.39 8.27c-5.32,-5.34 -12.41,-8.27 -19.94,-8.27 -15.55,0 -28.2,12.65 -28.2,28.2 0,4.97 1.3,9.82 3.76,14.1l-4 14.61 14.95 -3.93c4.12,2.25 8.75,3.43 13.48,3.43l0.01 0c15.54,0 28.47,-12.65 28.47,-28.2 0,-7.53 -3.2,-14.61 -8.52,-19.94zm-19.94 43.39c-4.22,0 -8.35,-1.13 -11.94,-3.27l-0.85 -0.51 -8.87 2.32 2.36 -8.65 -0.56 -0.89c-2.35,-3.73 -3.58,-8.04 -3.58,-12.47 0,-12.92 10.52,-23.44 23.45,-23.44 6.26,0 12.14,2.44 16.57,6.87 4.42,4.43 7.14,10.31 7.13,16.58 0,12.93 -10.79,23.45 -23.7,23.45zm12.85 -17.56c-0.7,-0.36 -4.17,-2.06 -4.81,-2.29 -0.65,-0.24 -1.12,-0.36 -1.59,0.36 -0.47,0.71 -1.82,2.29 -2.24,2.77 -0.41,0.47 -0.83,0.53 -1.52,0.18 -4.14,-2.07 -6.86,-3.7 -9.59,-8.38 -0.72,-1.25 0.72,-1.16 2.07,-3.85 0.23,-0.47 0.11,-0.88 -0.06,-1.23 -0.18,-0.36 -1.59,-3.82 -2.17,-5.23 -0.57,-1.37 -1.16,-1.18 -1.59,-1.21 -0.41,-0.03 -0.88,-0.03 -1.35,-0.03 -0.47,0 -1.23,0.18 -1.88,0.88 -0.65,0.71 -2.46,2.41 -2.46,5.88 0,3.47 2.53,6.82 2.87,7.29 0.36,0.47 4.97,7.58 12.04,10.65 4.47,1.93 6.22,2.1 8.46,1.77 1.36,-0.2 4.17,-1.7 4.75,-3.35 0.58,-1.65 0.58,-3.06 0.41,-3.35 -0.17,-0.32 -0.63,-0.5 -1.33,-0.84l0 0z"/>
 </g>
</svg>
